<?xml version="1.0" encoding="UTF-8"?>
<svg width="800" height="600" viewBox="0 0 800 600" fill="none" xmlns="http://www.w3.org/2000/svg">
    <!-- Background Elements -->
    <circle cx="400" cy="300" r="250" fill="#E3F2FD" opacity="0.5"/>
    <circle cx="400" cy="300" r="200" fill="#BBDEFB" opacity="0.3"/>
    
    <!-- School Building -->
    <path d="M300 200 L500 200 L400 100 Z" fill="#34495E"/>
    <rect x="320" y="200" width="160" height="200" fill="#2C3E50"/>
    <rect x="350" y="250" width="40" height="60" fill="#3498DB"/>
    <rect x="410" y="250" width="40" height="60" fill="#3498DB"/>
    <rect x="380" y="330" width="40" height="70" fill="#E74C3C"/>
    
    <!-- Books Stack -->
    <rect x="180" y="300" width="80" height="20" fill="#E74C3C"/>
    <rect x="190" y="280" width="80" height="20" fill="#F1C40F"/>
    <rect x="200" y="260" width="80" height="20" fill="#2ECC71"/>
    
    <!-- Graduation Cap -->
    <path d="M550 250 L650 250 L600 200 Z" fill="#34495E"/>
    <rect x="590" y="250" width="20" height="40" fill="#34495E"/>
    <circle cx="600" cy="290" r="15" fill="#3498DB"/>
    
    <!-- Digital Elements -->
    <rect x="500" y="350" width="100" height="60" rx="5" fill="#3498DB"/>
    <rect x="520" y="360" width="60" height="5" fill="white"/>
    <rect x="520" y="370" width="40" height="5" fill="white"/>
    <rect x="520" y="380" width="50" height="5" fill="white"/>
    
    <!-- Decorative Elements -->
    <circle cx="200" y="150" r="20" fill="#F1C40F" opacity="0.6"/>
    <circle cx="600" y="150" r="15" fill="#E74C3C" opacity="0.6"/>
    <circle cx="150" y="400" r="25" fill="#2ECC71" opacity="0.6"/>
    <circle cx="650" y="400" r="18" fill="#9B59B6" opacity="0.6"/>
    
    <!-- Connected Lines -->
    <path d="M200 150 Q 300 100 400 150" stroke="#3498DB" stroke-width="2" opacity="0.3"/>
    <path d="M400 150 Q 500 200 600 150" stroke="#3498DB" stroke-width="2" opacity="0.3"/>
    <path d="M150 400 Q 300 450 400 400" stroke="#3498DB" stroke-width="2" opacity="0.3"/>
    <path d="M400 400 Q 500 350 650 400" stroke="#3498DB" stroke-width="2" opacity="0.3"/>
</svg>
